# xmcd
#
# Track frame offsets:
#	150
#	6213
#	13544
#	20680
#	27181
#	35161
#	40036
#	49861
#	56486
#	60045
#	67848
#	74212
#	85308
#	88775
#	93996
#	102363
#	108535
#	112791
#	118127
#	127803
#
# Disc length: 1782 seconds
#
# Revision: 1
# Processed by: cddbd v1.5.2PL0 Copyright (c) Steve Scherf et al.
# Submitted via: audiograbber 1.82.02
#
DISCID=0306f414
DTITLE=Grandpa Fiddling - Bunkys Tunes
DYEAR=1900
DGENRE=
TTITLE0=Bunkys Hoedown (B and B Breakdown)
TTITLE1=Cut Down The Ol Pine Tree
TTITLE2=Dont Your Conscience Ever Bother You
TTITLE3=If The World Keeps On Turning
TTITLE4=Three O Clock In The Morning
TTITLE5=Five Foot Two
TTITLE6=Where The White Lilies Grow
TTITLE7=Power In the Blood
TTITLE8=I'll Fly Away
TTITLE9=I Come To The Garden
TTITLE10=Sunny San Juan
TTITLE11=Lone Eagle
TTITLE12=Chicken Reel
TTITLE13=Down Home Waltz
TTITLE14=Pardons
TTITLE15=Bully Of The Town
TTITLE16=Stay A Little Longer
TTITLE17=Dark Town Strutters Ball
TTITLE18=Kentucky Waltz
TTITLE19=Alice Blue Gown
EXTD=
EXTT0=
EXTT1=
EXTT2=
EXTT3=
EXTT4=
EXTT5=
EXTT6=
EXTT7=
EXTT8=
EXTT9=
EXTT10=
EXTT11=
EXTT12=
EXTT13=
EXTT14=
EXTT15=
EXTT16=
EXTT17=
EXTT18=
EXTT19=
PLAYORDER=
